<svg version="1.1" xmlns="http://www.w3.org/2000/svg"
 fill="white"
 style="background-color:#011b3e"
 width="85px" height="85px" viewBox="0 0 2160.000000 2172.000000"
 preserveAspectRatio="xMidYMid meet">

<g transform="translate(0.000000,2172.000000) scale(0.100000,-0.100000)">
<path d="M0 16523 l0 -5196 1478 6 c812 4 3126 10 5142 13 2016 3 3671 7 3678
9 9 4 12 1049 12 5185 l0 5180 -5155 0 -5155 0 0 -5197z m6680 2542 l0 -545
-575 0 -575 0 0 -2590 0 -2590 -580 0 -580 0 0 2590 0 2590 -585 0 -585 0 0
545 0 545 1740 0 1740 0 0 -545z"/>
<path d="M11292 16538 l3 -5183 5153 -3 5152 -2 0 5185 0 5185 -5155 0 -5155
0 2 -5182z m6118 -93 l0 -3125 -585 0 -585 0 -2 2476 -3 2475 -669 -502 c-469
-351 -673 -499 -682 -493 -20 14 -664 715 -664 723 0 3 479 358 1063 788
l1062 782 533 1 532 0 0 -3125z"/>
<path d="M19969 10386 c-2 -2 -1952 -7 -4334 -11 -2381 -4 -4333 -9 -4337 -12
-5 -2 -8 -2335 -8 -5184 l0 -5179 5155 0 5155 0 0 5195 0 5195 -813 0 c-448 0
-816 -2 -818 -4z m-3080 -1861 c958 -134 1849 -673 2342 -1414 110 -165 259
-464 259 -518 0 -10 -143 -13 -682 -13 -376 0 -688 4 -694 8 -6 4 -25 30 -44
57 -166 248 -432 473 -725 615 -296 143 -564 204 -905 204 -365 0 -628 -60
-945 -214 -347 -168 -612 -401 -831 -727 -89 -133 -211 -382 -262 -533 -171
-517 -145 -1113 70 -1594 230 -513 625 -893 1154 -1110 472 -193 1058 -216
1532 -60 127 41 355 151 467 224 247 161 468 389 619 637 52 87 96 167 96 178
0 3 -589 5 -1310 5 l-1310 0 0 540 0 540 2050 0 2050 0 0 -82 c-2 -640 -174
-1212 -525 -1738 -262 -393 -631 -745 -1043 -994 -466 -282 -954 -442 -1481
-487 -177 -15 -547 -7 -720 16 -542 70 -1019 248 -1476 550 -200 133 -337 246
-520 429 -509 511 -817 1134 -912 1843 -24 181 -24 629 0 803 50 354 135 642
282 947 327 681 842 1207 1515 1548 392 198 792 315 1220 355 143 13 595 4
729 -15z"/>
<path d="M0 5185 l0 -5185 5155 0 5155 0 -2 5183 -3 5182 -5152 3 -5153 2 0
-5185z m5427 3314 c601 -50 1177 -270 1658 -632 329 -248 650 -589 810 -862
56 -94 195 -383 195 -404 0 -8 -190 -11 -652 -11 l-653 0 -120 127 c-150 159
-261 256 -394 345 -189 126 -383 212 -636 282 -416 115 -755 110 -1129 -15
-297 -99 -572 -274 -801 -510 -561 -579 -776 -1395 -565 -2143 117 -416 388
-839 708 -1107 419 -351 932 -522 1440 -481 505 41 845 212 1314 661 l116 111
671 -2 671 -3 -68 -140 c-412 -842 -1209 -1448 -2172 -1650 -359 -76 -811 -85
-1183 -24 -769 125 -1500 550 -1998 1160 -514 629 -770 1373 -746 2169 14 477
120 896 335 1325 158 317 337 569 581 819 551 563 1275 916 2021 985 138 12
449 13 597 0z"/>
</g>
</svg>